<?xml version="1.0" encoding="UTF-8"?>
<svg xmlns="http://www.w3.org/2000/svg" xmlns:xlink="http://www.w3.org/1999/xlink" width="131px" height="40px" viewBox="0 0 131 40" version="1.1">
<g id="surface1">
<path style=" stroke:none;fill-rule:nonzero;fill:rgb(0%,0%,0%);fill-opacity:1;" d="M 53.804688 14.363281 C 51.289062 16.273438 50.292969 19.183594 50.292969 24.816406 C 50.292969 29.636719 51.464844 34 53.160156 35.453125 C 54.796875 36.816406 60.0625 36.546875 61.933594 35.089844 C 62.808594 34.363281 63.804688 32.726562 64.214844 31.363281 C 65.148438 28.273438 65.089844 21.089844 64.15625 18.183594 C 63.277344 15.453125 60.003906 12.726562 57.605469 12.726562 C 56.667969 12.726562 54.914062 13.453125 53.804688 14.363281 Z M 58.773438 25 C 58.773438 31.636719 58.65625 32.273438 57.605469 32.273438 C 56.550781 32.273438 56.433594 31.546875 56.261719 26 C 56.085938 18.636719 56.316406 17 57.722656 17.453125 C 58.597656 17.726562 58.773438 18.816406 58.773438 25 Z M 58.773438 25 "/>
<path style=" stroke:none;fill-rule:nonzero;fill:rgb(0%,0%,0%);fill-opacity:1;" d="M 24.5625 15.363281 C 24.5625 16.363281 24.855469 17.453125 25.148438 17.726562 C 25.5 18 25.730469 21.273438 25.730469 25 C 25.730469 28.726562 25.5 32 25.148438 32.273438 C 24.855469 32.546875 24.5625 33.636719 24.5625 34.636719 C 24.5625 36.089844 24.972656 36.363281 27.546875 36.363281 C 30.527344 36.363281 30.527344 36.363281 30.117188 33.816406 C 29.359375 29.273438 29.125 21.816406 29.707031 21.816406 C 30.292969 21.816406 32.28125 29.089844 33.101562 34.089844 C 33.335938 35.726562 33.859375 36.363281 34.796875 36.363281 C 35.964844 36.363281 36.375 35.363281 37.722656 29.089844 C 38.597656 25.089844 39.535156 22 39.828125 22.363281 C 40.527344 23 40.527344 31.546875 39.769531 32.273438 C 39.476562 32.546875 39.183594 33.636719 39.183594 34.636719 C 39.183594 36.183594 39.59375 36.363281 42.691406 36.363281 C 45.792969 36.363281 46.199219 36.183594 46.199219 34.636719 C 46.199219 33.636719 45.96875 32.546875 45.617188 32.273438 C 45.324219 32 45.03125 28.453125 45.03125 24.453125 C 45.03125 20.273438 45.265625 17.273438 45.617188 17.273438 C 45.96875 17.273438 46.199219 16.453125 46.199219 15.453125 C 46.199219 13.816406 45.792969 13.636719 41.875 13.636719 L 37.605469 13.636719 L 36.84375 17.726562 C 36.433594 20 35.90625 22.089844 35.617188 22.273438 C 35.382812 22.546875 34.738281 20.726562 34.210938 18.183594 L 33.21875 13.636719 L 28.890625 13.636719 C 24.972656 13.636719 24.5625 13.816406 24.5625 15.363281 Z M 24.5625 15.363281 "/>
<path style=" stroke:none;fill-rule:nonzero;fill:rgb(0%,0%,0%);fill-opacity:1;" d="M 68.425781 15 C 68.425781 15.726562 68.65625 17.183594 69.007812 18.363281 C 69.300781 19.546875 70.238281 24 71.054688 28.453125 L 72.578125 36.363281 L 78.890625 36.363281 L 79.535156 32.816406 C 79.886719 30.816406 80.824219 26.089844 81.582031 22.273438 C 82.402344 18.546875 83.042969 15 83.042969 14.546875 C 83.042969 14 81.582031 13.636719 79.828125 13.636719 C 77.019531 13.636719 76.613281 13.910156 76.613281 15.363281 C 76.613281 16.363281 76.902344 17.273438 77.253906 17.453125 C 77.722656 17.726562 77.722656 19.273438 77.195312 23.089844 C 76.261719 30.183594 75.207031 28.546875 75.207031 20 L 75.207031 13.636719 L 71.816406 13.636719 C 69.242188 13.636719 68.425781 13.910156 68.425781 15 Z M 68.425781 15 "/>
<path style=" stroke:none;fill-rule:nonzero;fill:rgb(0%,0%,0%);fill-opacity:1;" d="M 87.429688 25 L 87.429688 36.363281 L 90.824219 36.363281 C 93.746094 36.363281 94.15625 36.183594 94.15625 34.636719 C 94.15625 33.636719 93.921875 32.546875 93.570312 32.273438 C 93.277344 32 92.988281 28.453125 92.988281 24.453125 C 92.988281 20.273438 93.21875 17.273438 93.570312 17.273438 C 93.921875 17.273438 94.15625 16.453125 94.15625 15.453125 C 94.15625 13.816406 93.746094 13.636719 90.824219 13.636719 L 87.429688 13.636719 Z M 87.429688 25 "/>
<path style=" stroke:none;fill-rule:nonzero;fill:rgb(0%,0%,0%);fill-opacity:1;" d="M 98.542969 25 L 98.542969 36.363281 L 111.175781 36.363281 L 111 32 C 110.824219 27.910156 110.765625 27.726562 109.070312 27.726562 C 107.605469 27.726562 107.316406 28.089844 107.140625 30.273438 C 106.964844 32.363281 106.671875 32.816406 105.675781 32.546875 C 103.921875 32.183594 103.511719 27.453125 105.09375 25.636719 C 106.085938 24.546875 106.085938 24.363281 105.152344 23.546875 C 104.507812 23 104.097656 21.546875 104.097656 20 C 104.097656 17.726562 104.332031 17.273438 105.5 17.273438 C 106.554688 17.273438 106.964844 17.816406 107.140625 19.273438 C 107.257812 20.910156 107.722656 21.363281 109.070312 21.363281 C 110.707031 21.363281 110.824219 21.089844 111 17.453125 L 111.175781 13.636719 L 98.542969 13.636719 Z M 98.542969 25 "/>
<path style=" stroke:none;fill-rule:nonzero;fill:rgb(0%,0%,0%);fill-opacity:1;" d="M 115.210938 16.816406 C 115.210938 19.636719 115.386719 20 116.671875 20 C 117.492188 20 118.308594 19.363281 118.484375 18.636719 C 118.835938 17.273438 121.058594 16.636719 121.058594 17.910156 C 121.058594 18.363281 119.714844 21.726562 118.132812 25.453125 C 116.554688 29.183594 115.210938 33.183594 115.210938 34.273438 C 115.210938 36.273438 115.386719 36.363281 121.351562 36.363281 L 127.492188 36.363281 L 127.492188 33.183594 C 127.492188 30.363281 127.316406 30 126.027344 30 C 125.210938 30 124.390625 30.636719 124.214844 31.363281 C 123.808594 33 121.644531 33.183594 121.644531 31.546875 C 121.644531 31 122.988281 27.363281 124.566406 23.636719 C 128.777344 13.726562 128.777344 13.636719 121.351562 13.636719 L 115.210938 13.636719 Z M 115.210938 16.816406 "/>
<path style=" stroke:none;fill-rule:nonzero;fill:rgb(0%,0%,0%);fill-opacity:1;" d="M 3.859375 21.089844 C 5.378906 33.816406 5.964844 37.453125 6.257812 36.910156 C 6.84375 36 4.503906 14.546875 3.742188 14.546875 C 3.214844 14.546875 3.273438 16.089844 3.859375 21.089844 Z M 3.859375 21.089844 "/>
<path style=" stroke:none;fill-rule:nonzero;fill:rgb(0%,0%,0%);fill-opacity:1;" d="M 8.773438 17.546875 C 8.773438 19.273438 8.949219 24.363281 9.125 28.910156 L 9.53125 37.273438 L 14.503906 37.273438 L 14.855469 32.910156 C 15.03125 30.546875 15.324219 25.453125 15.554688 21.546875 L 15.90625 14.546875 L 8.773438 14.546875 Z M 8.773438 17.546875 "/>
<path style=" stroke:none;fill-rule:nonzero;fill:rgb(0%,0%,0%);fill-opacity:1;" d="M 19.589844 17.453125 C 18.597656 26.636719 17.777344 37.273438 18.128906 37.273438 C 18.421875 37.273438 21.054688 18.089844 21.054688 15.636719 C 21.054688 13.273438 19.941406 14.726562 19.589844 17.453125 Z M 19.589844 17.453125 "/>
</g>
</svg>
